<svg width="1229" height="630" viewBox="0 0 1229 630" fill="none" xmlns="http://www.w3.org/2000/svg">
<g opacity="0.8" clip-path="url(#clip0_332_521)">
<path d="M1.61523 276.358L121.395 246.364C124.423 245.59 121.588 240.574 121.952 240.074C127.411 237.977 133.105 239.985 138.476 240.106C202.497 241.477 266.687 238.993 330.724 240.074L326.686 238.461H122.759C122.331 236.138 123.389 237.162 124.528 236.63C130.351 233.912 138.427 230.549 144.404 228.219C148.773 226.517 154.475 225.009 159.095 223.936C159.022 222.275 156.381 223.67 155.04 222.751C153.942 222.001 154.233 221.049 154.249 219.912C184.567 213.984 213.44 202.411 243.508 195.645C256.083 200.443 270.491 210.008 283.429 213.097C286.676 213.871 288.267 212.105 288.824 215.936L331.693 236.679C335.666 239.921 339.551 243.679 344.776 244.84L564.015 0.60498L789.077 249.356C795.183 250.945 795.223 246.324 797.589 243.348C803.84 235.469 824.354 227.63 834.022 222.468C841.936 218.242 843.317 216.799 852.064 213.871C865.309 209.444 878.998 201.395 892.009 196.064L986.922 221.533L983.691 224.743L1014.83 237.606C1017.94 240.453 1013.36 243.034 1014.37 246.526L1220.55 296.705L1221.93 297.737L1220.33 299.746L1228.4 298.955C1230.59 300.907 1213.6 313.786 1209.83 311.044V356.215C1210.33 356.691 1213.66 355.143 1213.07 357.417C1212.7 360.345 1207.41 366.764 1207.41 367.901V543.311C1208.66 542.819 1211.65 542.069 1212.13 543.803L1212.26 550.57H1209.02V587.66L1028.11 588.474L1038.6 597.749L1035.38 598.959C1034.98 599.257 1036.19 599.983 1036.19 600.16V616.693H694.56V629.597H438.138C435.085 627.952 438.211 617.927 437.718 617.556C435.974 617.282 434.302 616.782 432.509 616.661C389.067 613.645 339.882 617.492 296.02 617.532C233.857 617.596 171.791 616.621 109.619 616.871C107.439 616.879 104.919 617.927 102.561 617.5V601.773C102.561 601.443 103.845 600.58 103.005 599.733C102.415 598.604 97.618 599.967 98.5306 597.757L109.022 588.482H1.61523V586.861L111.033 586.039L134.066 567.103V549.763H1.61523V548.15L133.574 548.207L134.874 544.932H1.61523V543.311H134.882C135.06 538.085 134.64 532.787 134.842 527.553C136.723 480.454 139.292 433.614 140.495 386.418C140.56 383.781 142.336 369.297 141.343 368.305H1.61523V366.7L140.875 366.732L142.078 358.699C125.199 357.159 107.875 357.812 90.8258 357.796C83.9126 357.796 76.7489 357.748 69.8921 357.796C47.0766 357.957 24.4469 358.941 1.61523 358.635V357.022H14.5373V312.262C11.2583 309.722 5.69376 311.601 1.61523 311.052V309.439L127.242 309.48L133.259 307.818L130.375 303.746L1.61523 302.996V301.383L143.774 301.729V297.35H1.61523V295.737L143.75 296.544L143.774 289.753L1.61523 289.285V286.866L143.774 287.205V279.6H1.61523V276.374V276.358ZM788.245 252.163L564.015 3.82285L342.434 250.55H357.375L562.069 21.8719L564.015 20.767C633.326 96.2619 701.877 172.442 770.057 248.961C770.76 249.711 773.417 252.171 774.112 252.171H788.245V252.163ZM769.67 251.348L564.015 23.9849L360.202 250.542H369.086L369.546 254.599H761.933L762.393 251.348H769.67ZM255.202 202.976C251.011 201.879 246.27 198.242 241.86 198.088C237.225 197.927 230.021 201.564 225.32 202.564C234.196 202.443 243.678 204.121 252.392 203.774C253.369 203.734 255.396 204.379 255.202 202.976ZM910.997 202.976C900.643 201.508 892.647 195.411 882.73 202.564C891.218 202.992 899.666 204.113 908.186 203.774C909.163 203.734 911.19 204.379 910.997 202.976ZM201.099 210.226H268.94L259.523 205.71C245.632 204.621 231.442 206.395 217.632 204.71L201.099 210.226ZM866.585 211.032H935.233L916.246 205.395C903.195 205.613 890.047 204.903 877.06 205.766L866.585 211.032ZM286.708 217.484C286.466 215.912 284.947 216.202 283.962 215.791C280.748 214.444 275.086 212.202 271.775 211.831C248.378 209.266 220.507 213.783 196.625 211.799L175.255 217.476H286.708V217.484ZM852.048 217.484H959.462C959.018 216.129 955.812 215.992 954.455 215.629C926.866 208.29 892.478 214.936 863.758 212.645L852.048 217.484ZM159.103 221.517H294.784L289.963 218.67C250.583 217.775 211.033 218.581 171.589 218.267L159.103 221.525V221.517ZM841.145 221.517H976.422L963.08 218.234C923.838 219.646 883.909 218.952 844.335 219.057L839.974 221.154C837.809 224.259 840.806 221.525 841.145 221.509V221.517ZM148.604 228.775H309.322L300.656 224.122C255.251 221.363 209.822 224.815 164.344 223.936L148.604 228.783V228.775ZM825.396 228.775H988.537L976.059 223.896L835.467 223.92L825.388 228.775H825.396ZM326.274 236.041L312.164 230.364C255.752 231.09 199.008 229.001 142.781 231.42L130.02 236.429L326.274 236.033V236.041ZM811.666 236.033H1006.3L992.187 230.372C935.072 230.832 877.755 229.549 820.768 231.017L811.658 236.033H811.666ZM1011.55 238.453H805.609C805.23 238.453 804.357 239.453 803.598 239.267V240.066H1013.57C1013.9 239.364 1012.24 238.558 1011.55 238.453ZM124.552 246.356C124.706 246.614 129.083 249.663 129.568 249.687C130.593 249.744 132.16 248.921 133.638 248.905C202.505 248.082 271.444 249.179 340.294 248.01C344.47 246.711 336.119 241.735 333.97 241.614C332.081 241.509 329.843 242.501 327.542 242.526C300.874 242.856 274.125 241.824 247.586 241.646C206.68 241.372 165.758 241.945 124.851 241.671C124.052 241.792 124.157 245.655 124.56 246.364L124.552 246.356ZM1012.77 242.485H800.36L797.129 248.937H1011.55L1012.64 247.606L1012.77 242.485ZM100.146 254.582H130.836C129.955 252.324 126.571 252.26 125.126 250.929C124.431 250.284 126.119 247.953 121.629 248.187C118.431 248.356 106.09 252.01 102.391 253.211C101.535 253.486 99.952 253.413 100.138 254.582H100.146ZM1007.11 254.582H1040.23L1016.39 248.873C1012.53 248.703 1009.72 252.163 1007.11 254.582ZM339.196 249.752L130.012 250.953L143.54 260.034C196.9 261.946 250.704 261.244 304.032 260.204C315.468 259.978 326.952 260.429 338.388 260.236C338.663 257.357 337.217 254.615 337.492 251.728C337.677 249.784 339.349 251.211 339.188 249.768L339.196 249.752ZM1007.92 250.55H797.129C797.04 254.671 794.609 253.558 791.581 254.687L791.476 261.034H992.979C997.695 261.034 1004.37 253.51 1007.92 250.55ZM368.278 252.97H340.415C338.614 254.945 340.738 258.994 340.036 261.817L368.287 262.647V252.961L368.278 252.97ZM763.209 261.841H787.841C788.067 261.841 789.723 261.01 789.893 260.486L789.868 254.582L764.032 252.97L763.217 261.849L763.209 261.841ZM71.8789 261.034H140.527L132.233 256.01C119.957 254.607 107.31 255.752 94.9044 255.405L71.8708 261.034H71.8789ZM762.409 256.195L391.264 256.163C384.156 257.808 376.969 255.921 369.869 256.599L369.078 265.462L762.409 265.075V256.195ZM1004.29 261.841C1026.17 262.607 1048.22 261.268 1070.11 261.841L1047.08 256.203C1034.41 257.155 1019.91 254.913 1007.47 256.147C1003.7 256.518 1003.18 258.123 1000.66 260.639C1000.05 262.26 1003.3 261.801 1004.29 261.841ZM337.185 262.647H145.373L146.181 303.778H369.086V281.6C369.086 280.729 365.177 276.849 364.475 275.535L346.472 274.333L338.291 261.881C337.96 261.655 337.387 262.631 337.177 262.639L337.185 262.647ZM143.758 262.647H64.2064L40.3814 269.906H143.758V262.647ZM763.209 271.519H780.573C782.422 269.373 784.247 267.002 785.814 264.655C786.226 264.043 787.51 263.333 786.21 262.631L763.201 263.446V271.519H763.209ZM994.998 262.647H791.879C791.056 262.647 789.311 262.873 788.689 263.43L782.059 273.809C778.271 274.753 768.668 272.64 766.052 274.761C763.903 276.495 763.37 284.866 763.176 288.019C762.869 292.963 763.467 298.036 763.209 302.979L980.097 303.012L994.198 302.173L994.998 262.647ZM996.613 269.906H1102.41L1077.77 263.462C1053.82 263.075 1029.81 263.946 1005.87 263.494C1002.77 263.438 1000.08 261.889 996.702 263.542L996.613 269.906ZM367.471 264.26L342.426 263.873C343.412 265.309 346.65 271.551 347.498 272.115C350.672 274.22 361.196 272.607 365.282 273.124L368.682 277.97L367.471 264.26ZM369.894 276.358H761.19L762.102 275.18L762.401 266.68L369.902 267.486V276.358H369.894ZM143.758 271.519H28.6708L4.03812 277.97H143.758V271.519ZM1110.89 271.519H996.613V277.979C1033.63 277.067 1070.66 280.333 1107.57 278.051C1115.49 279.035 1123.84 278.301 1131.9 277.97C1132.88 277.93 1134.9 278.575 1134.71 277.172C1127.01 276.922 1118.32 272.357 1110.88 271.519H1110.89ZM761.593 277.97L370.701 278.777V305.391L143.314 305.431L132.863 303.77C131.474 305.81 135.358 307.028 136.869 307.028C244.017 307.165 350.599 308.802 457.473 305.359C556.714 307.625 656.367 302.479 755.568 305.359C757.725 305.423 759.51 305.996 761.585 306.205V277.979L761.593 277.97ZM1144.01 279.583H996.613V287.648H1174.29L1144.01 279.583ZM1182.77 289.261H996.613V296.528C1066.37 296.721 1136.11 296.479 1205.78 295.705L1182.77 289.261ZM1217.9 298.141L997.025 297.318L996.605 301.762C1069.19 301.479 1141.7 300.504 1214.31 300.6L1217.9 298.149V298.141ZM1221.94 302.971H1004.69V309.431C1074.16 307.77 1143.91 308.964 1213.49 308.657L1221.94 302.979V302.971ZM1002.27 304.584L766.439 305.399L770.033 307.044C845.781 309.447 922.481 303.552 997.792 307.044C999.278 307.117 1000.8 306.947 1002.27 307.004V304.592V304.584ZM368.278 309.423H763.612C763.75 309.423 764.88 308.335 764.824 307.818C706.053 306.972 647.193 306.851 588.317 306.964C584.981 306.964 581.234 307.843 577.89 307.843C508.418 307.972 438.946 307.665 369.474 307.802L368.278 309.415V309.423ZM370.693 317.488C371.089 317.133 366.8 308.367 364.684 309.383C294.154 309.238 223.479 310.109 153.07 308.593C150.106 308.528 133.347 308.222 132.443 309.439C133.905 311.004 136.836 314.996 138.452 315.924C141.448 317.641 156.381 316.504 161.146 316.649C163.286 316.714 165.233 317.472 167.534 317.528C235.173 319.085 303.038 316.286 370.685 317.488H370.693ZM1000.65 308.617H766.843C766.56 308.617 762.627 312.101 762.53 312.375C762.029 313.851 762.546 315.899 762.401 317.488H994.594C994.941 317.488 997.55 314.423 998.091 313.722C999.036 312.504 999.706 311.044 1000.64 309.81V308.617H1000.65ZM15.3449 357.006L72.9773 356.893C75.917 355.933 73.6314 346.215 73.6557 343.699C73.6718 342.239 74.326 340.674 74.3422 338.892C74.3825 335.223 74.7379 313.028 73.9303 311.802L15.3449 311.036V357.006ZM82.3781 357.006V312.246C80.8032 310.689 77.6211 312.125 75.1094 311.036V357.006H82.3781ZM83.1857 311.036V357.006C83.7753 357.224 84.1548 356.199 84.3971 356.199H138.104L137.289 343.287H140.535L139.736 319.666L132.088 311.794L83.1776 311.036H83.1857ZM760.786 311.843H372.317V350.554H463.579V324.343C463.579 323.964 464.58 323.093 464.394 322.335H465.194V350.554C474.805 350.07 484.302 348.247 493.865 347.328C542.605 342.658 592.88 342.917 641.653 347.328C650.399 348.118 659.154 349.796 667.909 350.546V323.125L669.516 334.021V350.546H758.767C759.033 350.546 759.994 349.481 760.786 349.739V311.835V311.843ZM1052.34 311.036H1001.46L995.741 320.287L994.998 344.11H1000.65L999.036 357.014L1052.34 356.207V311.044V311.036ZM1060.42 311.036H1053.15V356.199H1060.42V311.036ZM1123.41 311.036H1061.22V356.199H1123.41V311.036ZM1131.49 311.036H1124.22V356.191H1131.49V311.036ZM1196.1 311.036H1132.29V356.199H1196.1V311.036ZM1207.4 311.036H1197.71V356.199L1206.9 356.102L1208.03 354.99C1208.05 354.659 1207.4 354.385 1207.4 354.183V311.036ZM370.701 319.101L142.143 318.295V344.102H370.701V319.101ZM993.383 319.101H762.401V343.296L993.383 344.102V319.101ZM140.931 357.006H364.24L363.772 351.312L370.709 350.562V345.715C298.201 346.804 225.522 344.288 153.021 345.691C148.24 345.788 143.443 347.046 138.92 345.723C138.702 347.715 138.936 356.361 140.931 357.014V357.006ZM765.632 352.175L665.049 352.207C612.295 345.61 558.976 343.981 505.987 348.142C494.188 349.07 482.243 351.554 470.484 352.207C446.053 353.562 420.645 352.506 396.182 353.014C386.087 353.223 375.951 352.796 365.856 352.981C365.872 355.861 364.919 357.054 368.052 357.611C370.709 358.078 375.547 358.514 378.341 358.667C421.638 360.949 467.907 356.788 510.833 352.191C547.338 351.304 584.254 349.586 620.654 352.191C641.709 353.699 661.779 358.893 682.882 358.675C701.562 358.474 720.606 358.377 739.351 357.804C743.624 357.675 761.828 358.732 763.814 356.82C764.275 356.377 765.971 352.506 765.623 352.191L765.632 352.175ZM998.228 345.715H762.401V349.755H768.054L766.439 357.006C833.327 357.578 900.279 356.232 967.175 357.062C971.892 357.119 970.196 357.683 971.916 357.893C974.5 358.207 995.644 358.175 996.662 357.465L998.228 345.723V345.715ZM372.72 364.264H419.159L418.351 367.482H419.555L421.178 364.264H464.79C464.992 364.264 465.428 363.409 465.993 363.45C466.551 365.393 466.349 367.321 465.775 369.264C464.701 372.893 459.686 379.482 458.886 382.62C458.329 384.789 459.775 386.523 459.427 387.902C459.104 389.168 456.245 390.434 457.069 392.846L458.692 562.941C461.317 564.336 463.264 565.32 464.047 568.361L469.24 568.312L469.555 373.91L473.666 372.772L553.54 373.192C557.118 359.619 575.516 360.111 579.57 373.192L661.439 372.345L661.908 582.845H666.293L666.39 572.458L670.243 571.458C670.784 570.837 669.903 567.159 670.453 565.586C670.824 564.506 672.552 564.57 672.77 563.723C673.562 560.675 672.544 552.457 672.722 548.529C674.62 505.657 673.82 462.494 674.337 419.492C674.507 405.217 677.148 395.064 671.955 380.805C670.444 376.66 667.804 373.297 667.093 369.119L664.686 370.732L667.101 364.28H713.136L711.52 368.305L713.531 368.345C714.105 368.176 714.339 366.385 715.074 365.837C717.352 364.143 741.492 365.345 746.693 365.119C750.933 364.933 755.472 363.587 759.978 364.28L760.786 359.449C731.041 359.328 701.264 359.603 671.511 359.409C658.354 359.32 647.459 356.82 634.384 355.417C578.964 349.457 519.176 352.739 464.015 359.482L369.894 359.457L372.72 364.288V364.264ZM997.825 366.684H1206.6L1210.63 357.82L1018.79 357.78L997.372 358.974L996.621 367.49C996.92 367.893 997.599 366.716 997.825 366.684ZM167.179 358.619H143.758L135.682 566.691H163.141L167.179 358.619ZM163.949 566.691H379.181C380.199 566.691 381.871 563.61 382.048 562.296C384.463 544.303 379.496 521.77 382.848 503.415L383.64 390.443C380.013 387.523 381.895 386.087 381.007 382.595C380.684 381.321 373.706 367.288 372.93 366.845C372.034 366.329 370.467 367.159 369.789 366.216C368.997 365.119 369.013 360.062 368.165 359.522L167.979 358.619L163.94 566.683L163.949 566.691ZM969.162 358.619L762.401 359.425C762.353 361.232 762.466 364.659 761.618 366.159C761.125 367.03 759.833 366.393 759.122 367.208C757.474 369.079 751.506 380.249 751.24 382.636C751.013 384.628 752.281 386.329 751.377 388.289L748.623 389.733C750.077 417.605 749.196 445.614 749.455 473.591C749.471 475.494 750.311 477.26 750.327 479.172C750.634 507.552 749.115 536.166 751.474 564.385L753.59 564.723L754.236 567.143C761.278 567.691 768.636 567.699 775.759 567.554C777.883 567.506 779.846 566.707 782.148 566.675C846.063 565.715 910.084 567.465 974 566.715L969.154 358.635L969.162 358.619ZM994.19 359.425H971.981C971.811 359.425 971.068 358.215 970.777 358.619C970.923 369.498 970.567 380.426 970.737 391.314C970.906 402.193 971.31 413.387 971.544 424.379L972.352 462.284L974.807 566.691H1001.46L994.19 359.425ZM580.685 394.104C579.796 390.313 578.423 386.878 577.672 382.999C576.493 376.877 578.141 367.821 569.596 366.071C558.063 363.708 554.542 372.071 554.841 382.007C556.375 382.507 556.948 380.321 558.305 380.539C558.871 380.628 563.426 383.233 563.716 382.829L564.128 380.394L566.147 382.402L564.144 385.168L556.02 383.023C551.562 389.394 563.611 384.926 566.955 386.039L566.551 383.628C568.263 387.418 573.206 388.289 575.823 384.837C573.618 380.999 570.791 385.918 569.378 382.829L576.194 381.983L577.067 386.902C573.15 390.66 569.531 386.773 565.735 386.773C561.94 386.773 558.039 390.83 554.033 386.854L551.602 393.297C552.636 392.926 553.976 394.112 554.429 394.112H580.677L580.685 394.104ZM415.928 366.684H375.547L379.157 372.393L412.302 372.337C413.982 372.692 416.405 367.111 415.937 366.692L415.928 366.684ZM464.378 366.692L422.381 367.095C422.793 369.2 424.683 371.901 426.848 372.313C437.258 371.393 449.873 373.611 459.993 372.385C462.811 372.047 464.281 369.458 464.378 366.692ZM709.905 366.684H667.909L670.016 373.184H706.303L707.563 372.635L709.905 366.684ZM756.748 366.692L716.374 367.893L719.33 373.176L753.138 373.208C754.68 373.353 757.474 367.409 756.74 366.7L756.748 366.692ZM429.917 389.862C429.198 388.217 429.941 385.789 429.295 383.579C429.069 382.813 422.034 370.192 421.493 369.603C420.952 369.014 420.694 368.159 419.579 368.248C416.615 368.248 411.575 379.111 411.131 381.644C410.477 385.354 412.003 387.821 408.676 391.289C408.692 448.88 410.348 506.366 410.211 563.901L413.199 568.361L425.515 568.199L426.589 563.57L428.915 563.022C430.038 520.601 430.005 478.107 430.442 435.606C430.579 421.928 433.091 404.701 431.346 391.225C431.16 389.773 430.03 390.104 429.925 389.854L429.917 389.862ZM1204.98 368.297L996.605 369.095L1002.27 542.497H1204.98V368.297ZM724.257 390.241C720.356 389.168 722.835 386.458 722.415 384.329C718.571 380.128 716.31 362.812 709.219 372.055C708.524 372.958 703.84 381.781 703.638 382.612C703.129 384.668 703.896 387.096 703.323 388.749C702.863 390.08 700.642 390.233 700.464 391.233C700.367 391.789 701.07 393.943 701.062 395.281C700.674 443.066 701.304 491.164 702.669 538.843C702.806 543.586 701.724 560.659 703.048 563.465C703.622 564.683 706.069 566.03 706.368 568.369L718.264 568.353C720.097 566.127 718.401 564.24 722.084 563.836L724.265 390.249L724.257 390.241ZM411.89 374.748H380.393L383.543 381.482L384.803 382.063L408.918 381.224L411.882 374.74L411.89 374.748ZM460.348 374.748H426.428L431.007 381.87L455.938 382.063L457.198 381.482L460.348 374.748ZM659.832 374.748L579.069 375.563C580.402 378.418 579.651 381.45 580.24 384.466C581.048 388.604 583.237 391.709 583.915 395.709C572.326 396.378 560.922 396.378 549.284 395.628C547.645 393.007 550.181 391.854 550.843 389.693C552.329 384.87 552.458 380.474 553.225 375.547H470.847L470.419 581.232L493.461 582.006V399.733H638.422L639.633 400.943V581.998H659.824V374.732L659.832 374.748ZM705.051 374.756L671.93 375.168L675.71 382.684C680.726 382.176 699.188 384.176 702.451 381.821C702.911 381.491 705.609 375.297 705.059 374.748L705.051 374.756ZM749.39 381.91L751.555 376.394L750.698 374.894L720.404 374.756C722.141 385.273 726.187 382.055 733.698 381.974C738.923 381.918 744.173 382.176 749.39 381.918V381.91ZM408.66 383.62H383.623V387.652H408.66V383.62ZM457.118 384.426H431.273V387.652C439.875 388.338 448.468 388.701 457.126 388.467V384.426H457.118ZM701.021 384.426C693.397 385.749 685.596 384.628 677.964 385.2C676.526 385.305 675.331 384.958 674.386 386.442C675.129 388.692 676.736 388.894 678.933 388.959C685.894 389.16 693.866 387.781 701.021 388.467V384.426ZM749.479 384.426H723.635L723.74 387.144L724.846 388.459H749.479V384.426ZM407.045 389.265H386.046L383.623 565.078H405.833C406.253 565.078 407.658 564.086 408.539 564.151L407.045 389.265ZM457.118 564.272L454.291 390.072H433.696L431.677 564.272H457.118ZM698.598 390.072H676.792L675.169 564.272C678.803 564.651 700.416 566.433 701.054 563.731L698.598 390.072ZM747.056 390.072H726.058L723.586 563.804C723.934 565.796 745.635 564.869 748.671 565.078L747.048 390.063L747.056 390.072ZM636.411 401.362H499.518C498.993 401.362 495.859 401.878 495.9 402.572L498.323 404.975L631.21 405.443C633.617 405.733 636.282 403.911 636.411 401.362ZM495.076 580.401L497.693 577.772C498.84 521.02 498.46 463.816 497.887 407.024L495.076 404.588V580.401ZM638.026 404.588L636.201 405.588C634.925 463.26 635.773 521.262 635.773 579.022L638.026 581.208V404.588ZM633.18 407.814H499.922V577.175H506.383V417.492H627.527V578.788H633.18V407.814ZM565.34 419.911H507.998V577.175L565.34 577.982V419.911ZM625.912 419.911H566.955V577.982L625.912 578.788V419.911ZM1210.63 544.916H1002.27V548.142H1210.63V544.916ZM1207.4 550.562H1002.27L1003.49 568.296L1024.48 586.047H1207.4V550.562ZM460.34 565.078C449.946 566.449 438.486 566.328 428.043 565.078C428.196 568.369 425.313 571.03 430.022 571.57C435.255 572.175 445.641 571.933 451.093 571.57C456.27 571.224 461.963 571.627 460.34 565.086V565.078ZM703.444 565.885C692.945 567.369 682.47 566.336 671.939 565.885C670.024 571.506 678.787 571.869 682.947 572.232C689.803 572.829 696.644 572.119 703.444 571.53V565.877V565.885ZM751.902 566.691L721.212 565.885L721.164 570.232C721.672 572.159 745.796 572.659 748.211 572.288C751.748 571.748 752.281 570.086 751.902 566.699V566.691ZM411.083 566.691H381.201C381.297 568.425 380.506 571.562 382.525 572.224C387.952 571.554 394.316 573.216 399.332 573.175C402.756 573.151 407.578 571.103 411.075 572.345V566.699L411.083 566.691ZM379.585 568.304H135.278L102.165 596.531L106.308 598.047L369.902 597.346C369.45 590.749 369.498 586.789 374.384 582.063C375.426 581.063 377.445 581.208 377.913 579.877C378.519 578.127 375.959 573.587 380.393 573.127L378.245 570.304L379.593 568.304H379.585ZM1001.06 568.304H753.517L754.373 572.304L756.635 572.837L756.78 583.595L760.786 584.837V597.338C850.941 598.983 941.388 597.846 1031.66 598.063L1034.56 597.329L1001.05 568.304H1001.06ZM719.597 569.917H707.078C706.917 569.917 706.166 568.764 705.875 569.103L705.059 572.328L709.55 573.095L710.656 584.087L716.366 584.442L715.647 572.804L719.597 569.917ZM423.197 582.821H461.963C461.608 580.724 463.046 574.845 460.639 574.062L423.197 573.941L425.612 571.143C424.538 568.772 416.203 570.385 413.909 569.917L413.506 571.522C417.536 571.103 416.122 582.216 416.728 582.829H421.582V574.756C424.538 575.474 422.575 582.216 423.189 582.821H423.197ZM469.232 569.917C466.147 570.127 461.866 568.699 460.348 572.328C465.905 572.53 464.063 579.692 464.386 583.627C465.509 584.095 469.224 582.369 469.224 581.611V569.917H469.232ZM414.321 573.95L379.585 574.756V582.022L414.321 582.829V573.95ZM708.298 583.635C707.902 581.45 709.413 574.837 706.965 574.03L667.917 573.958L668.716 583.635H708.298ZM755.132 573.95H717.174L717.973 584.442L755.132 583.635V573.95ZM458.733 598.951H673.562C672.245 593.047 664.702 589.789 661.682 584.418L638.422 584.055L633.56 580.426L498.315 580.014C496.732 581.143 495.997 583.2 493.84 583.611C487.573 584.805 477.179 583.16 470.621 582.942C468.925 583.385 457.917 598.362 458.725 598.959L458.733 598.951ZM372.317 588.063V615.08H437.331L444.599 606.209H457.118C457.424 602.902 456.504 598.846 457.481 595.684C458.062 593.797 466.938 585.442 466.001 584.442L376.024 583.764C375.442 584.515 372.405 587.765 372.317 588.063ZM759.17 586.047L666.293 585.248C672.149 592.337 677.18 595.821 675.169 606.217C678.23 606.33 684.691 605.91 687.259 607.451C688.786 608.37 691.419 613.782 693.341 615.088H759.162V586.055L759.17 586.047ZM369.894 599.757H105.395L104.184 600.967V615.08H369.49C371.323 613.959 369.894 613.346 369.894 613.064V599.757ZM760.786 599.757V615.08H1034.57L1033.76 599.757H760.786ZM673.562 600.563H458.733V609.435H673.562V600.563ZM457.013 607.128L445.197 607.548L439.35 615.879L692.137 616.685C688.681 611.717 688.665 608.298 682.074 607.79C679.805 607.612 677.447 607.967 675.177 607.814V611.048C669.217 610.273 662.893 611.145 656.989 611.088C606.787 610.644 555.495 611.435 505.042 610.741C489.77 610.532 474.441 609.846 459.129 610.249C456.883 610.443 457.481 607.564 457.013 607.128ZM692.953 619.113L439.35 618.306V627.984L692.533 628L692.953 619.113Z" fill="#E7000B" stroke="#E7000B" stroke-miterlimit="10"/>
<path d="M560.494 81.1886C565.615 84.2855 569.984 91.5681 567.593 97.5522C566.866 99.3668 565.502 100.294 565.017 101.423C563.442 105.036 563.281 112.319 563.733 116.271C564.492 122.9 572.568 128.118 571.01 136.029C572.964 134.957 572.714 132.424 573.869 130.424C575.468 127.658 578.852 125.529 579.134 122.739C579.385 120.247 578.214 118.206 578.262 116.271C578.424 110.585 580.152 103.48 579.054 97.7377C578.577 95.2618 574.604 92.3665 574.192 88.0518C573.723 83.1403 575.783 83.6968 576.485 81.4064C576.76 80.5112 575.993 79.3418 576.429 78.1805C577.188 76.1884 579.522 75.7691 580.588 74.2368C582.026 72.1641 582.268 68.3091 583.116 65.8735L591.249 76.6885C592.274 80.3338 593.389 84.9388 592.606 88.6728C591.976 91.689 587.138 96.4231 587.138 96.915V115.867L590.433 114.642V112.698L592.807 112.633L592.081 111.117L600.908 109.036L600.876 106.19L605.657 106.932L607.038 103.698C610.066 103.609 613.184 105.488 613.822 108.593L618.635 106.182L616.342 117.69C617.537 120.408 620.743 120.851 622.722 122.666C623.901 123.747 624.725 125.497 625.872 126.787C626.801 127.844 628.739 128.569 629.191 129.32C630.855 132.11 629.676 136.215 629.086 139.183C623.651 138.296 622.383 140.82 617.561 137.497C616.14 136.521 614.452 134.118 613.232 133.755C610.696 133.013 607.506 134.384 604.922 132.779C602.83 141.683 607.555 150.651 605.253 159.837C607.224 161.224 612.554 171.031 613.523 171.361C620.606 173.797 624.281 166.006 629.991 167.813C634.384 169.2 634.053 173.547 635.878 176.466C641.096 184.797 650.496 191.249 648.526 202.951C645.812 203.508 638.996 200.879 638.438 198.217C638.22 197.161 639.004 195.782 638.826 194.564C638.471 192.136 630.079 179.313 627.826 178.886L618.66 183.588C629.013 183.741 628.787 190.838 632.244 197.854C636.492 206.476 642.848 215.258 639.65 225.541C638.245 226.759 632.632 222.097 631.985 220.678C630.871 218.242 632.825 216.315 631.63 213.016C630.629 210.242 625.056 199.443 623.368 197.048C619.766 191.919 617.642 195.387 612.586 195.685C610.171 195.83 606.844 195.951 604.494 195.733C600.989 195.411 597.532 193.032 594.915 193.282C592.541 193.516 586.718 197.233 583.568 198.153C575.718 200.451 566.947 200.169 558.936 198.943C557.256 205.435 550.908 210.073 545.174 213.032C548.969 217.162 560.486 217.541 563.329 221.517C565.275 224.234 566.414 240.187 564.137 240.066L556.012 234.404L557.143 228.097C546.991 221.146 533.431 224.38 523.424 217.766L524.167 213.436C513.062 213.379 509.775 226.089 503.589 232.799C502.628 233.84 502.183 234.146 502.377 232.396C505.955 227.049 512.117 214.226 518.473 212.169C526.816 209.476 531.04 211.621 539.787 205.226C544.907 201.476 545.028 199.403 547.936 194.814C549.244 192.749 551.279 192.572 550.835 190.048C552.975 190.201 550.439 194.354 550.827 194.862C565.122 199.677 580.12 199.516 593.26 191.677L592.016 188.435C595.666 189.459 598.21 192.628 602.184 193.193C608.257 194.056 614.46 192.515 620.509 192.62C626.13 193.733 627.624 204.564 630.362 206.984C631.719 208.185 633.229 207.782 634.812 207.782L631.582 209.403L632.422 211.807L635.507 210.887C636.557 206.234 632.938 203.314 631.162 199.725C629.999 197.379 626.494 188.741 625.508 187.628C623.295 185.144 616.051 185.338 612.643 184.346C610.777 183.805 609.412 182.08 607.361 181.951C607.159 180.418 608.944 181.725 609.865 180.652C610.091 180.386 611.141 177.789 611.221 177.329C612.425 170.369 604.599 160.708 598.477 158.167L604.122 159.369C603.719 153.812 602.741 147.57 602.475 142.07C602.346 139.473 603.436 132.804 603.185 131.715C602.765 129.892 598.057 127.15 599.285 123.892C600.908 124.448 600.811 127.11 601.958 128.473C602.919 129.618 607.918 132.618 609.453 132.747C610.987 132.876 612.328 131.876 613.782 132.344C615.776 132.997 618.765 136.941 620.897 137.441C622.601 137.844 626.146 136.65 628.351 137.586V133.554L627.544 135.981H624.321L624.66 131.868L627.544 130.723C624.58 129.416 624.103 126.215 621.93 124.231C619.378 121.9 615.72 120.771 614.193 116.601C613.846 115.658 617.367 112.287 616.229 110.166L613.386 110.948L612.99 115.803L612.182 112.585L605.729 115.803C608.209 113.375 610.874 112.754 612.005 108.948L608.556 105.343C605.52 108.02 608.588 107.294 609.768 109.351L602.596 108.657C602.192 111.908 599.688 110.391 598.259 111.02C597.589 111.319 597.686 112.166 597.007 112.496C596.014 112.98 594.407 112.424 593.615 113.795C593.785 115.367 600.06 111.787 597.661 114.609C587.412 115.843 580.313 124.456 577.051 133.545L576.663 128.715C573.885 137.15 570.258 139.554 574.329 148.369C577.333 154.877 583.043 158.78 582.841 166.91C582.825 167.555 582.551 169.273 581.509 169.031C582.857 166.023 580.015 164.813 579.918 164.434C579.538 162.942 580.071 161.49 579.28 159.555C577.947 156.296 570.969 151.764 569.774 147.288C568.312 141.828 571.793 138.715 569.83 131.908C565.857 118.126 549.785 115.763 538.769 109.698C534.755 107.488 529.602 103.633 525.847 100.826C520.525 96.8344 515.202 92.5358 510.833 87.5921C510.139 89.3744 511.859 92.2455 512.844 93.6488C518.263 101.327 536.58 113.359 545.416 116.771C549.422 118.319 556.545 118.859 558.895 120.247C559.283 120.472 560.236 121.44 559.283 121.472L551.982 120.109L550.811 122.263L560.494 123.085L553.621 124.682L550.811 123.892L554.841 123.085L549.196 123.884L549.171 121.166L550.795 119.859C536.467 114.9 520.824 106.553 512.02 94.052C510.526 93.8746 511.318 95.7295 511.592 96.4957C516.479 110.061 535.442 118.593 548.372 122.287C548.428 123.432 548.767 124.231 547.249 123.811C542.411 122.472 532.865 118.464 528.448 115.956C522.665 112.682 516.309 107.504 512.424 102.117C511.746 108.19 518.465 113.98 523.061 117.303C529.942 122.263 538.147 125.658 546.748 125.513C546.91 126.795 545.044 126.682 544.245 126.666C535.983 126.473 527.204 122.069 520.646 117.303C518.376 115.65 516.793 113.504 514.451 111.795C515.937 115.133 516.139 118.335 518.869 121.497C524.078 127.545 537.727 132.723 545.561 131.158C548.461 130.578 546.49 128.553 548.372 127.924C548.412 130.174 547.516 131.739 550.003 132.36L548.994 132.804L548.38 135.183C554.025 133.747 559.469 133.183 565.332 133.578L547.564 135.989V131.957C537.776 134.868 528.593 129.521 520.113 125.505C521.114 130.078 531.064 135.981 535.046 135.981H546.756C546.458 137.457 545.174 137.481 543.962 137.618C538.058 138.296 531.113 136.844 526.162 133.562C523.812 132.804 530.394 138.884 531.622 139.401C536.144 141.32 542.831 140.828 547.572 139.997L546.765 136.788H549.196C548.041 138.667 548.953 139.247 549.995 140.804L532.235 141.215C536.564 145.683 542.783 146.796 548.719 144.941L549.591 142.433L550.084 144.473L552.418 144.852C552.644 145.03 551.998 145.877 551.618 146.07C551.239 146.264 543.93 147.256 543.09 147.288C540.853 147.369 538.987 146.215 537.081 146.861C541.257 150.772 548.784 151.974 552.402 147.272L554.025 149.675L541.919 151.304C541.951 152.353 545.044 153.409 545.731 153.522C548.961 154.046 554.211 154.425 554.849 150.498L556.375 150.578L558.063 152.901C554.825 152.377 551.312 155.554 548.453 155.764C546.991 155.869 546.135 154.587 544.875 154.691C542.355 154.901 535.644 159.651 532.219 159.764L516.075 163.385C526.695 165.95 539.076 162.716 548.582 157.708C549.204 157.385 549.228 156.756 549.204 156.159L550.803 156.143L549.979 157.74C550.948 158.442 558.475 155.941 558.071 153.724L562.917 156.643L569.354 151.296C569.685 152.78 568.546 153.216 567.755 154.119C567.238 154.7 563.555 158.587 563.24 158.603C561.593 158.692 560.922 157.087 559.032 157.433C556.763 157.853 556.593 160.78 553.217 160.555C558.031 164.829 561.391 157.635 566.131 160.167C566.204 161.821 563.959 160.297 562.804 160.571C560.268 161.184 558.314 164.232 555.689 164.224C554.534 169.361 562.885 165.337 565.324 163.377C566.963 165.063 559.897 167.555 558.879 167.418C559.049 168.41 563.668 168.797 564.29 168.773C569.289 168.579 568.805 165.531 569.378 161.764L570.969 164.982L574.2 160.958C574.184 163.071 572.148 163.764 571.365 165.781C570.654 167.611 570.638 170.265 570.162 172.241C568.013 171.636 570.654 167.99 570.162 166.603L563.725 171.845C566.269 174.595 572.148 171.007 572.584 176.281C569.459 172.668 564.71 175.337 562.158 171.845L563.709 169.837C552.41 166.402 549.664 162.668 537.654 167.603C525.136 172.741 519.846 181.136 521.72 194.83L523.327 192.015C523.271 195.201 523.779 198.548 522.326 201.5C520.387 205.451 514.5 205.089 511.641 208.573C508.838 211.992 505.099 219.783 502.192 224.138C499.567 228.057 493.518 232.13 497.483 236.767C495.197 237.356 495.529 234.945 495.044 233.549L489.423 234.372L490.626 243.243C492.758 238.662 497.79 237.275 501.521 234.364L490.626 245.638C489.391 245.663 486.968 236.348 488.187 234.348C488.938 233.114 492.758 232.703 494.608 231.081C497.443 228.581 504.299 217.904 506.714 214.137C508.257 211.734 509.016 208.064 510.874 206.193C513.151 203.911 520.153 202.653 520.783 200.758C521.373 195.758 518.974 191.435 519.257 186.354C519.442 182.983 520.719 181.604 521.712 178.717C521.235 178.152 510.607 186.12 509.565 187.144C505.866 190.806 500.762 201.774 496.885 202.717C495.747 202.992 494.842 202.129 493.186 202.976C490.384 204.427 488.446 209.395 484.618 210.613C480.159 212.032 478.883 209.5 477.042 209.532C474.627 209.573 472.237 212.016 468.182 210.807C467.036 210.468 461.826 203.976 461.964 203.322C463.296 201.467 465.671 202.161 467.609 202.088C467.407 200.758 463.248 200.185 465.969 198.443C467.843 197.241 472.253 198.838 474.861 197.645C476.614 196.846 479.982 191.999 482.195 190.451C485.732 187.983 489.576 188.015 492.581 186.306C495.585 184.596 498.808 179.991 502.838 177.999C506.351 176.257 513.482 174.757 517.48 174.071C525.387 172.724 522.18 174.926 529.053 170.305C536.322 165.418 543.502 162.345 552.402 161.764C548.776 155.821 543.163 161.797 538.43 163.539C523.246 169.127 515.978 163.676 502.498 158.78C491.781 154.885 486.612 150.595 477.825 143.893C475.879 142.409 474.11 140.739 473.254 138.384C481.379 139.965 489.617 141.086 497.927 140.836L528.173 138.368C527.705 137.078 526.13 136.876 524.951 135.554C521.26 131.416 513.733 116.674 512.037 111.343C511.907 110.932 511.818 110.028 512.424 110.149C512.981 110.843 513.749 111.246 514.443 111.754C511.431 104.988 510.421 103.569 509.743 95.8102C509.533 93.4552 509.339 90.3664 509.218 87.9792C508.863 81.2451 512.852 88.0921 514.048 89.1728C525.79 99.8023 540.11 109.157 554.817 114.988C554.187 111.399 556.286 107.577 555.624 104.125C554.897 100.367 550.94 99.6813 551.683 92.1084C552.176 87.1243 553.864 87.4066 555.988 84.3017C556.706 83.2532 558.661 77.3578 560.066 79.5273C560.413 79.987 560.284 80.7209 560.478 81.1241C560.107 80.8983 559.04 80.1886 558.871 80.3176C558.338 83.3177 557.231 86.0275 554.825 87.9953C554.776 91.1971 558.96 88.9147 559.662 90.7938L553.993 91.189C553.104 91.6084 552.903 93.5601 553.209 94.0198C554.041 95.3021 560.405 92.681 561.278 94.8263L556.44 94.8424L560.47 95.6489C558.419 99.0925 555.309 96.7296 553.209 94.8343L553.193 98.8748H556.44C555.075 101.117 557.094 102.52 557.272 104.899C557.425 107.036 556.505 115.335 556.795 115.803C557.167 116.408 562.392 119.593 562.893 119.037C562.642 113.593 560.292 106.577 562.731 101.528C564.411 98.0441 566.689 98.3748 566.172 92.8262C565.679 87.5115 562.376 85.1485 560.478 81.1402L560.494 81.1886ZM580.685 96.1086C582.252 102.093 579.522 114.746 580.685 121.513L585.894 116.714C585.91 110.77 584.65 102.698 585.571 96.9554C586.185 93.1084 591.031 90.8906 591.047 85.584C591.063 82.4145 588.866 82.9548 588.761 82.7855C588.495 82.3419 590.021 81.4467 590.255 80.5999C590.829 78.4466 584.949 70.2769 583.116 68.2849L581.484 77.1482L583.915 77.9546C582.478 77.8256 577.761 77.5353 578.27 79.9709L583.915 83.6L576.655 82.8016L576.679 86.7937L585.531 86.834V89.2454C583.592 87.6566 583.035 87.5921 580.677 88.447C581.961 89.8261 581.339 90.9793 579.78 89.4712C578.827 88.5518 579.191 87.705 576.647 87.6244C575.298 90.9309 580.241 94.415 580.677 96.0924L580.685 96.1086ZM535.458 147.312L529.384 140.022C512.15 141.296 493.316 145.102 476.509 140.062C475.096 141.417 481.024 143.893 481.71 144.135C497.903 149.853 515.849 146.127 532.219 143.296C531.84 144.764 528.682 145.014 527.39 145.312C513.482 148.562 497.758 149.248 483.77 146.522C498.678 157.288 519.014 150.425 535.458 147.312ZM543.534 154.57C541.055 152.788 539.027 148.312 535.894 148.232C521.155 151.683 506.149 156.127 491.046 152.175C490.925 153.24 492.888 153.603 493.728 153.917C503.888 157.732 511.067 157.845 521.76 155.821C527.535 154.732 532.825 151.982 538.688 151.369L519.491 157.595L504.776 158.627C504.566 159.796 506.302 159.667 507.175 159.845C520.783 162.611 531.016 159.434 543.542 154.579L543.534 154.57ZM646.079 197.29C645.739 188.741 637.558 183.797 634.101 177.45C631.897 173.402 633.568 168.91 626.381 169.942C622.318 170.523 618.595 175.781 612.998 172.321C613.467 175.983 612.651 178.684 611.375 181.991C618.11 185.257 622.318 177.208 628.561 177.281L640.999 192.677L640.457 198.935L646.087 197.298L646.079 197.29ZM523.335 175.555C521.978 173.845 515.598 177.281 513.838 177.757C508.596 179.176 504.921 178.934 499.971 182.459C493.154 187.306 495.827 186.822 487.016 190.491C481.742 192.685 477.187 199.096 474.038 200.153C472.366 200.717 469.604 199.185 467.617 199.758C468.32 202.564 473.19 200.79 474.078 201.371C473.852 207 471.308 207.96 466.002 207.411C472.923 212.879 476.614 204.669 481.742 201.363C482.082 203.08 475.217 206.782 479.311 207.814L485.377 202.58L480.539 198.959C484.125 200.532 486.855 201.879 490.223 198.959L484.529 206.589L481.347 207.847L481.759 209.46C487.582 208.621 488.769 202.29 493.453 200.564L492.637 198.532L487.816 197.354L497.499 194.935L495.076 200.564C497.612 202.605 506.197 187.338 508.41 185.257C510.47 183.322 515.065 180.499 517.65 179.16C518.611 178.66 524.821 177.442 523.343 175.579L523.335 175.555ZM557.264 198.943L550.019 197.709C545.472 202.451 540.4 208.476 534.287 211.065C530.491 212.669 527.107 211.226 525.879 216.291C533.164 221.621 542.274 220.081 550.633 222.904C552.862 223.654 555.939 225.952 557.078 226.218C559.25 226.718 561.883 224.17 562.925 227.154H558.887C558.766 228.944 558.564 229.783 560.494 229.589V230.372C558.338 230.259 558.015 232.598 558.088 234.412L561.31 233.614C560.413 235.767 561.092 237.582 563.733 237.638L562.739 222.509C559.008 220.388 554.502 219.775 550.649 218.049C547.104 216.452 545.198 214.291 541.935 212.629L549.599 207.798L557.272 198.935L557.264 198.943ZM637.978 219.863C638.115 217.904 638.107 215.92 637.922 213.952C637.849 213.145 637.59 210.161 636.411 210.234L633.173 212.653L635.579 215.863C630.451 218.049 632.728 221.533 637.97 219.863H637.978Z" fill="#E7000B" stroke="#E7000B" stroke-miterlimit="10"/>
<path d="M613.797 465.881V502.979H577.454V465.881H613.797ZM612.182 467.494H579.069V500.56H612.182V467.494Z" fill="#E7000B" stroke="#E7000B" stroke-miterlimit="10"/>
<path d="M613.797 432.009V457.01H577.454V432.009H613.797ZM612.182 434.428H580.281C580.039 434.428 579.659 433.404 579.069 433.622V455.397H612.182V434.428Z" fill="#E7000B" stroke="#E7000B" stroke-miterlimit="10"/>
<path d="M613.797 536.852V559.836L577.454 561.046V536.852H613.797ZM612.182 538.465H579.877V559.433H612.182V538.465Z" fill="#E7000B" stroke="#E7000B" stroke-miterlimit="10"/>
<path d="M613.797 511.851V528.787H578.666L577.454 527.577V511.851H613.797ZM612.182 512.657H579.069V526.367H612.182V512.657Z" fill="#E7000B" stroke="#E7000B" stroke-miterlimit="10"/>
<path d="M570.186 502.979V491.285L571.801 490.471C572.415 490.906 575.645 505.1 570.186 502.979Z" fill="#E7000B" stroke="#E7000B" stroke-miterlimit="10"/>
<path d="M519.305 503.786V465.881H553.629V503.786H519.305ZM552.417 467.494H520.92V500.963C522.043 502.794 522.656 501.366 522.939 501.366H552.417V467.494Z" fill="#E7000B" stroke="#E7000B" stroke-miterlimit="10"/>
<path d="M554.84 457.01H519.305V432.009H553.629L554.663 433.219C554.687 433.549 554.033 433.823 554.033 434.025V455.8C554.033 456.042 555.058 456.421 554.84 457.01ZM552.417 434.428H520.92V455.397H552.417V434.428Z" fill="#E7000B" stroke="#E7000B" stroke-miterlimit="10"/>
<path d="M554.033 528.787H519.305V513.06L520.516 511.851H553.629L554.525 513.052L554.033 528.787ZM552.417 514.27H520.92V525.964L522.131 527.174H552.417V514.27Z" fill="#E7000B" stroke="#E7000B" stroke-miterlimit="10"/>
<path d="M554.84 536.852C555.276 544.916 552.684 553.102 554.84 561.046H519.305V536.852H554.84ZM553.225 538.465H520.92V559.433H552.417V539.674C552.417 539.505 553.629 538.755 553.225 538.465Z" fill="#E7000B" stroke="#E7000B" stroke-miterlimit="10"/>
<path d="M562.101 490.89L562.909 502.979L559.687 502.987L559.695 492.906L562.101 490.89Z" fill="#E7000B" stroke="#E7000B" stroke-miterlimit="10"/>
<path d="M612.989 118.287L607.336 119.892C609.032 119.811 610.696 119.851 612.384 120.101C612.755 120.158 615.525 120.666 614.185 121.521C611.447 120.763 608.596 120.787 605.842 120.174C604.76 119.932 601.828 119.601 601.683 118.279H612.989V118.287Z" fill="#E7000B" stroke="#E7000B" stroke-miterlimit="10"/>
<path d="M1.61523 276.357L121.395 246.364C124.423 245.59 121.588 240.573 121.952 240.073C127.411 237.977 133.105 239.985 138.476 240.106C202.497 241.477 266.687 238.993 330.724 240.073L326.686 238.46H122.759C122.331 236.138 123.389 237.162 124.528 236.63C130.351 233.912 138.427 230.549 144.404 228.218C148.773 226.516 154.475 225.008 159.095 223.936C159.022 222.274 156.381 223.67 155.04 222.75C153.942 222 154.233 221.048 154.249 219.911C184.567 213.984 213.44 202.411 243.508 195.644C256.083 200.443 270.491 210.008 283.429 213.097C286.676 213.871 288.267 212.105 288.824 215.935L331.693 236.678C335.666 239.92 339.551 243.678 344.776 244.84L564.015 0.604492L789.077 249.356C795.183 250.945 795.223 246.324 797.589 243.348C803.84 235.468 824.354 227.629 834.022 222.468C841.936 218.242 843.317 216.798 852.064 213.871C865.309 209.443 878.998 201.394 892.009 196.064L986.922 221.532L983.691 224.742L1014.83 237.606C1017.94 240.452 1013.36 243.033 1014.37 246.525L1220.55 296.705L1221.93 297.737L1220.33 299.745L1228.4 298.955C1230.59 300.906 1213.6 313.786 1209.83 311.044V356.215C1210.33 356.691 1213.66 355.142 1213.07 357.417C1212.7 360.344 1207.41 366.764 1207.41 367.901V543.311C1208.66 542.819 1211.65 542.069 1212.13 543.803L1212.26 550.569H1209.02V587.659L1028.11 588.474L1038.6 597.748L1035.38 598.958C1034.98 599.256 1036.19 599.982 1036.19 600.16V616.693H694.56V629.596H438.138C435.085 627.951 438.211 617.927 437.718 617.556C435.974 617.281 434.302 616.781 432.509 616.66C389.067 613.644 339.882 617.491 296.02 617.531C233.857 617.596 171.791 616.62 109.619 616.87C107.439 616.878 104.919 617.927 102.561 617.499V601.773C102.561 601.442 103.845 600.579 103.005 599.732C102.415 598.603 97.618 599.966 98.5306 597.756L109.022 588.482H1.61523V586.861L111.033 586.038L134.066 567.102V549.763H1.61523V548.15L133.574 548.206L134.874 544.932H1.61523V543.311H134.882C135.06 538.085 134.64 532.786 134.842 527.552C136.723 480.454 139.292 433.613 140.495 386.418C140.56 383.78 142.336 369.296 141.343 368.304H1.61523V366.699L140.875 366.731L142.078 358.699C125.199 357.158 107.875 357.812 90.8258 357.796C83.9126 357.796 76.7489 357.747 69.8921 357.796C47.0766 357.957 24.4469 358.941 1.61523 358.634V357.021H14.5373V312.262C11.2583 309.721 5.69376 311.6 1.61523 311.052V309.439L127.242 309.479L133.259 307.818L130.375 303.745L1.61523 302.995V301.382L143.774 301.729V297.35H1.61523V295.737L143.75 296.543L143.774 289.753L1.61523 289.285V286.865L143.774 287.204V279.599H1.61523V276.373V276.357ZM788.245 252.163L564.015 3.82236L342.434 250.55H357.375L562.069 21.8714L564.015 20.7666C633.326 96.2614 701.877 172.442 770.057 248.961C770.76 249.711 773.417 252.171 774.112 252.171H788.245V252.163ZM769.67 251.348L564.015 23.9844L360.202 250.542H369.086L369.546 254.598H761.933L762.393 251.348H769.67ZM255.202 202.975C251.011 201.878 246.27 198.241 241.86 198.088C237.225 197.927 230.021 201.564 225.32 202.564C234.196 202.443 243.678 204.12 252.392 203.774C253.369 203.733 255.396 204.378 255.202 202.975ZM910.997 202.975C900.643 201.507 892.647 195.41 882.73 202.564C891.218 202.991 899.666 204.112 908.186 203.774C909.163 203.733 911.19 204.378 910.997 202.975ZM201.099 210.225H268.94L259.523 205.709C245.632 204.62 231.442 206.395 217.632 204.709L201.099 210.225ZM866.585 211.032H935.233L916.246 205.395C903.195 205.612 890.047 204.903 877.06 205.766L866.585 211.032ZM286.708 217.484C286.466 215.911 284.947 216.201 283.962 215.79C280.748 214.443 275.086 212.201 271.775 211.83C248.378 209.266 220.507 213.782 196.625 211.798L175.255 217.476H286.708V217.484ZM852.048 217.484H959.462C959.018 216.129 955.812 215.992 954.455 215.629C926.866 208.29 892.478 214.935 863.758 212.645L852.048 217.484ZM159.103 221.516H294.784L289.963 218.669C250.583 217.774 211.033 218.581 171.589 218.266L159.103 221.524V221.516ZM841.145 221.516H976.422L963.08 218.234C923.838 219.645 883.909 218.952 844.335 219.056L839.974 221.153C837.809 224.258 840.806 221.524 841.145 221.508V221.516ZM148.604 228.775H309.322L300.656 224.121C255.251 221.363 209.822 224.815 164.344 223.936L148.604 228.783V228.775ZM825.396 228.775H988.537L976.059 223.895L835.467 223.92L825.388 228.775H825.396ZM326.274 236.041L312.164 230.363C255.752 231.089 199.008 229 142.781 231.42L130.02 236.428L326.274 236.033V236.041ZM811.666 236.033H1006.3L992.187 230.371C935.072 230.831 877.755 229.549 820.768 231.017L811.658 236.033H811.666ZM1011.55 238.452H805.609C805.23 238.452 804.357 239.452 803.598 239.267V240.065H1013.57C1013.9 239.364 1012.24 238.557 1011.55 238.452ZM124.552 246.356C124.706 246.614 129.083 249.662 129.568 249.687C130.593 249.743 132.16 248.92 133.638 248.904C202.505 248.082 271.444 249.179 340.294 248.009C344.47 246.711 336.119 241.735 333.97 241.614C332.081 241.509 329.843 242.501 327.542 242.525C300.874 242.856 274.125 241.823 247.586 241.646C206.68 241.372 165.758 241.944 124.851 241.67C124.052 241.791 124.157 245.654 124.56 246.364L124.552 246.356ZM1012.77 242.485H800.36L797.129 248.937H1011.55L1012.64 247.606L1012.77 242.485ZM100.146 254.582H130.836C129.955 252.324 126.571 252.259 125.126 250.929C124.431 250.283 126.119 247.953 121.629 248.187C118.431 248.356 106.09 252.009 102.391 253.211C101.535 253.485 99.952 253.413 100.138 254.582H100.146ZM1007.11 254.582H1040.23L1016.39 248.872C1012.53 248.703 1009.72 252.163 1007.11 254.582ZM339.196 249.751L130.012 250.953L143.54 260.034C196.9 261.945 250.704 261.244 304.032 260.203C315.468 259.977 326.952 260.429 338.388 260.235C338.663 257.356 337.217 254.614 337.492 251.727C337.677 249.783 339.349 251.211 339.188 249.767L339.196 249.751ZM1007.92 250.55H797.129C797.04 254.671 794.609 253.558 791.581 254.687L791.476 261.034H992.979C997.695 261.034 1004.37 253.509 1007.92 250.55ZM368.278 252.969H340.415C338.614 254.945 340.738 258.993 340.036 261.816L368.287 262.647V252.961L368.278 252.969ZM763.209 261.84H787.841C788.067 261.84 789.723 261.01 789.893 260.485L789.868 254.582L764.032 252.969L763.217 261.848L763.209 261.84ZM71.8789 261.034H140.527L132.233 256.009C119.957 254.606 107.31 255.751 94.9044 255.405L71.8708 261.034H71.8789ZM762.409 256.195L391.264 256.163C384.156 257.808 376.969 255.921 369.869 256.598L369.078 265.461L762.409 265.074V256.195ZM1004.29 261.84C1026.17 262.606 1048.22 261.268 1070.11 261.84L1047.08 256.203C1034.41 257.155 1019.91 254.913 1007.47 256.147C1003.7 256.518 1003.18 258.122 1000.66 260.639C1000.05 262.26 1003.3 261.8 1004.29 261.84ZM337.185 262.647H145.373L146.181 303.777H369.086V281.599C369.086 280.728 365.177 276.849 364.475 275.534L346.472 274.333L338.291 261.881C337.96 261.655 337.387 262.631 337.177 262.639L337.185 262.647ZM143.758 262.647H64.2064L40.3814 269.905H143.758V262.647ZM763.209 271.518H780.573C782.422 269.373 784.247 267.002 785.814 264.655C786.226 264.042 787.51 263.332 786.21 262.631L763.201 263.445V271.518H763.209ZM994.998 262.647H791.879C791.056 262.647 789.311 262.873 788.689 263.429L782.059 273.809C778.271 274.752 768.668 272.639 766.052 274.76C763.903 276.494 763.37 284.865 763.176 288.019C762.869 292.962 763.467 298.035 763.209 302.979L980.097 303.011L994.198 302.173L994.998 262.647ZM996.613 269.905H1102.41L1077.77 263.461C1053.82 263.074 1029.81 263.945 1005.87 263.494C1002.77 263.437 1000.08 261.889 996.702 263.542L996.613 269.905ZM367.471 264.26L342.426 263.873C343.412 265.308 346.65 271.55 347.498 272.115C350.672 274.22 361.196 272.607 365.282 273.123L368.682 277.97L367.471 264.26ZM369.894 276.357H761.19L762.102 275.18L762.401 266.679L369.902 267.486V276.357H369.894ZM143.758 271.518H28.6708L4.03812 277.97H143.758V271.518ZM1110.89 271.518H996.613V277.978C1033.63 277.067 1070.66 280.333 1107.57 278.051C1115.49 279.035 1123.84 278.301 1131.9 277.97C1132.88 277.93 1134.9 278.575 1134.71 277.172C1127.01 276.922 1118.32 272.357 1110.88 271.518H1110.89ZM761.593 277.97L370.701 278.776V305.39L143.314 305.431L132.863 303.769C131.474 305.81 135.358 307.028 136.869 307.028C244.017 307.165 350.599 308.802 457.473 305.358C556.714 307.624 656.367 302.479 755.568 305.358C757.725 305.423 759.51 305.995 761.585 306.205V277.978L761.593 277.97ZM1144.01 279.583H996.613V287.648H1174.29L1144.01 279.583ZM1182.77 289.261H996.613V296.527C1066.37 296.721 1136.11 296.479 1205.78 295.705L1182.77 289.261ZM1217.9 298.14L997.025 297.318L996.605 301.761C1069.19 301.479 1141.7 300.503 1214.31 300.6L1217.9 298.148V298.14ZM1221.94 302.971H1004.69V309.431C1074.16 307.77 1143.91 308.963 1213.49 308.657L1221.94 302.979V302.971ZM1002.27 304.584L766.439 305.398L770.033 307.044C845.781 309.447 922.481 303.552 997.792 307.044C999.278 307.116 1000.8 306.947 1002.27 307.003V304.592V304.584ZM368.278 309.423H763.612C763.75 309.423 764.88 308.334 764.824 307.818C706.053 306.971 647.193 306.85 588.317 306.963C584.981 306.963 581.234 307.842 577.89 307.842C508.418 307.971 438.946 307.665 369.474 307.802L368.278 309.415V309.423ZM370.693 317.488C371.089 317.133 366.8 308.366 364.684 309.382C294.154 309.237 223.479 310.108 153.07 308.592C150.106 308.528 133.347 308.221 132.443 309.439C133.905 311.004 136.836 314.996 138.452 315.923C141.448 317.641 156.381 316.504 161.146 316.649C163.286 316.713 165.233 317.471 167.534 317.528C235.173 319.084 303.038 316.286 370.685 317.488H370.693ZM1000.65 308.616H766.843C766.56 308.616 762.627 312.1 762.53 312.375C762.029 313.85 762.546 315.899 762.401 317.488H994.594C994.941 317.488 997.55 314.423 998.091 313.721C999.036 312.504 999.706 311.044 1000.64 309.81V308.616H1000.65ZM15.3449 357.005L72.9773 356.892C75.917 355.933 73.6314 346.215 73.6557 343.698C73.6718 342.239 74.326 340.674 74.3422 338.892C74.3825 335.222 74.7379 313.028 73.9303 311.802L15.3449 311.036V357.005ZM82.3781 357.005V312.245C80.8032 310.689 77.6211 312.125 75.1094 311.036V357.005H82.3781ZM83.1857 311.036V357.005C83.7753 357.223 84.1548 356.199 84.3971 356.199H138.104L137.289 343.287H140.535L139.736 319.665L132.088 311.794L83.1776 311.036H83.1857ZM760.786 311.842H372.317V350.553H463.579V324.343C463.579 323.964 464.58 323.093 464.394 322.335H465.194V350.553C474.805 350.07 484.302 348.247 493.865 347.327C542.605 342.658 592.88 342.916 641.653 347.327C650.399 348.118 659.154 349.795 667.909 350.545V323.125L669.516 334.021V350.545H758.767C759.033 350.545 759.994 349.481 760.786 349.739V311.834V311.842ZM1052.34 311.036H1001.46L995.741 320.286L994.998 344.11H1000.65L999.036 357.013L1052.34 356.207V311.044V311.036ZM1060.42 311.036H1053.15V356.199H1060.42V311.036ZM1123.41 311.036H1061.22V356.199H1123.41V311.036ZM1131.49 311.036H1124.22V356.191H1131.49V311.036ZM1196.1 311.036H1132.29V356.199H1196.1V311.036ZM1207.4 311.036H1197.71V356.199L1206.9 356.102L1208.03 354.989C1208.05 354.658 1207.4 354.384 1207.4 354.183V311.036ZM370.701 319.101L142.143 318.294V344.102H370.701V319.101ZM993.383 319.101H762.401V343.295L993.383 344.102V319.101ZM140.931 357.005H364.24L363.772 351.311L370.709 350.561V345.715C298.201 346.803 225.522 344.287 153.021 345.69C148.24 345.787 143.443 347.045 138.92 345.723C138.702 347.715 138.936 356.36 140.931 357.013V357.005ZM765.632 352.174L665.049 352.207C612.295 345.61 558.976 343.981 505.987 348.142C494.188 349.069 482.243 351.553 470.484 352.207C446.053 353.562 420.645 352.505 396.182 353.013C386.087 353.223 375.951 352.795 365.856 352.981C365.872 355.86 364.919 357.054 368.052 357.61C370.709 358.078 375.547 358.513 378.341 358.667C421.638 360.949 467.907 356.788 510.833 352.191C547.338 351.303 584.254 349.586 620.654 352.191C641.709 353.699 661.779 358.892 682.882 358.675C701.562 358.473 720.606 358.376 739.351 357.804C743.624 357.675 761.828 358.731 763.814 356.82C764.275 356.376 765.971 352.505 765.623 352.191L765.632 352.174ZM998.228 345.715H762.401V349.755H768.054L766.439 357.005C833.327 357.578 900.279 356.231 967.175 357.062C971.892 357.118 970.196 357.683 971.916 357.892C974.5 358.207 995.644 358.175 996.662 357.465L998.228 345.723V345.715ZM372.72 364.264H419.159L418.351 367.481H419.555L421.178 364.264H464.79C464.992 364.264 465.428 363.409 465.993 363.449C466.551 365.393 466.349 367.32 465.775 369.264C464.701 372.893 459.686 379.482 458.886 382.619C458.329 384.789 459.775 386.523 459.427 387.902C459.104 389.168 456.245 390.434 457.069 392.845L458.692 562.941C461.317 564.336 463.264 565.32 464.047 568.36L469.24 568.312L469.555 373.909L473.666 372.772L553.54 373.191C557.118 359.618 575.516 360.11 579.57 373.191L661.439 372.345L661.908 582.845H666.293L666.39 572.457L670.243 571.457C670.784 570.836 669.903 567.158 670.453 565.586C670.824 564.505 672.552 564.57 672.77 563.723C673.562 560.674 672.544 552.456 672.722 548.529C674.62 505.656 673.82 462.493 674.337 419.492C674.507 405.217 677.148 395.063 671.955 380.805C670.444 376.659 667.804 373.296 667.093 369.119L664.686 370.732L667.101 364.28H713.136L711.52 368.304L713.531 368.344C714.105 368.175 714.339 366.385 715.074 365.836C717.352 364.143 741.492 365.344 746.693 365.118C750.933 364.933 755.472 363.586 759.978 364.28L760.786 359.449C731.041 359.328 701.264 359.602 671.511 359.409C658.354 359.32 647.459 356.82 634.384 355.417C578.964 349.457 519.176 352.739 464.015 359.481L369.894 359.457L372.72 364.288V364.264ZM997.825 366.683H1206.6L1210.63 357.82L1018.79 357.779L997.372 358.973L996.621 367.49C996.92 367.893 997.599 366.715 997.825 366.683ZM167.179 358.618H143.758L135.682 566.691H163.141L167.179 358.618ZM163.949 566.691H379.181C380.199 566.691 381.871 563.61 382.048 562.295C384.463 544.303 379.496 521.77 382.848 503.414L383.64 390.442C380.013 387.523 381.895 386.087 381.007 382.595C380.684 381.321 373.706 367.288 372.93 366.844C372.034 366.328 370.467 367.159 369.789 366.215C368.997 365.118 369.013 360.062 368.165 359.521L167.979 358.618L163.94 566.683L163.949 566.691ZM969.162 358.618L762.401 359.425C762.353 361.231 762.466 364.659 761.618 366.159C761.125 367.03 759.833 366.393 759.122 367.207C757.474 369.078 751.506 380.248 751.24 382.635C751.013 384.627 752.281 386.329 751.377 388.289L748.623 389.732C750.077 417.604 749.196 445.613 749.455 473.59C749.471 475.494 750.311 477.26 750.327 479.171C750.634 507.551 749.115 536.165 751.474 564.384L753.59 564.723L754.236 567.142C761.278 567.691 768.636 567.699 775.759 567.554C777.883 567.505 779.846 566.707 782.148 566.675C846.063 565.715 910.084 567.465 974 566.715L969.154 358.634L969.162 358.618ZM994.19 359.425H971.981C971.811 359.425 971.068 358.215 970.777 358.618C970.923 369.498 970.567 380.426 970.737 391.313C970.906 402.192 971.31 413.386 971.544 424.379L972.352 462.284L974.807 566.691H1001.46L994.19 359.425ZM580.685 394.103C579.796 390.313 578.423 386.877 577.672 382.998C576.493 376.877 578.141 367.82 569.596 366.07C558.063 363.707 554.542 372.07 554.841 382.006C556.375 382.506 556.948 380.321 558.305 380.538C558.871 380.627 563.426 383.232 563.716 382.829L564.128 380.393L566.147 382.401L564.144 385.168L556.02 383.022C551.562 389.394 563.611 384.926 566.955 386.039L566.551 383.627C568.263 387.418 573.206 388.289 575.823 384.837C573.618 380.998 570.791 385.918 569.378 382.829L576.194 381.982L577.067 386.902C573.15 390.66 569.531 386.773 565.735 386.773C561.94 386.773 558.039 390.829 554.033 386.853L551.602 393.297C552.636 392.926 553.976 394.112 554.429 394.112H580.677L580.685 394.103ZM415.928 366.683H375.547L379.157 372.393L412.302 372.336C413.982 372.691 416.405 367.11 415.937 366.691L415.928 366.683ZM464.378 366.691L422.381 367.094C422.793 369.199 424.683 371.901 426.848 372.312C437.258 371.393 449.873 373.611 459.993 372.385C462.811 372.046 464.281 369.457 464.378 366.691ZM709.905 366.683H667.909L670.016 373.183H706.303L707.563 372.635L709.905 366.683ZM756.748 366.691L716.374 367.893L719.33 373.175L753.138 373.208C754.68 373.353 757.474 367.409 756.74 366.699L756.748 366.691ZM429.917 389.861C429.198 388.216 429.941 385.789 429.295 383.579C429.069 382.813 422.034 370.191 421.493 369.603C420.952 369.014 420.694 368.159 419.579 368.248C416.615 368.248 411.575 379.111 411.131 381.643C410.477 385.353 412.003 387.821 408.676 391.289C408.692 448.88 410.348 506.366 410.211 563.9L413.199 568.36L425.515 568.199L426.589 563.57L428.915 563.021C430.038 520.6 430.005 478.107 430.442 435.605C430.579 421.927 433.091 404.701 431.346 391.224C431.16 389.773 430.03 390.103 429.925 389.853L429.917 389.861ZM1204.98 368.296L996.605 369.094L1002.27 542.496H1204.98V368.296ZM724.257 390.24C720.356 389.168 722.835 386.458 722.415 384.329C718.571 380.127 716.31 362.812 709.219 372.054C708.524 372.957 703.84 381.78 703.638 382.611C703.129 384.668 703.896 387.095 703.323 388.748C702.863 390.079 700.642 390.232 700.464 391.232C700.367 391.789 701.07 393.942 701.062 395.281C700.674 443.065 701.304 491.164 702.669 538.843C702.806 543.585 701.724 560.658 703.048 563.465C703.622 564.683 706.069 566.029 706.368 568.368L718.264 568.352C720.097 566.126 718.401 564.239 722.084 563.836L724.265 390.248L724.257 390.24ZM411.89 374.748H380.393L383.543 381.482L384.803 382.063L408.918 381.224L411.882 374.74L411.89 374.748ZM460.348 374.748H426.428L431.007 381.869L455.938 382.063L457.198 381.482L460.348 374.748ZM659.832 374.748L579.069 375.562C580.402 378.417 579.651 381.45 580.24 384.466C581.048 388.603 583.237 391.708 583.915 395.708C572.326 396.378 560.922 396.378 549.284 395.628C547.645 393.007 550.181 391.853 550.843 389.692C552.329 384.869 552.458 380.474 553.225 375.546H470.847L470.419 581.232L493.461 582.006V399.733H638.422L639.633 400.942V581.998H659.824V374.732L659.832 374.748ZM705.051 374.756L671.93 375.167L675.71 382.684C680.726 382.176 699.188 384.176 702.451 381.821C702.911 381.49 705.609 375.296 705.059 374.748L705.051 374.756ZM749.39 381.909L751.555 376.393L750.698 374.893L720.404 374.756C722.141 385.272 726.187 382.055 733.698 381.974C738.923 381.918 744.173 382.176 749.39 381.918V381.909ZM408.66 383.619H383.623V387.652H408.66V383.619ZM457.118 384.426H431.273V387.652C439.875 388.337 448.468 388.7 457.126 388.466V384.426H457.118ZM701.021 384.426C693.397 385.748 685.596 384.627 677.964 385.2C676.526 385.305 675.331 384.958 674.386 386.442C675.129 388.692 676.736 388.894 678.933 388.958C685.894 389.16 693.866 387.781 701.021 388.466V384.426ZM749.479 384.426H723.635L723.74 387.144L724.846 388.458H749.479V384.426ZM407.045 389.265H386.046L383.623 565.078H405.833C406.253 565.078 407.658 564.086 408.539 564.15L407.045 389.265ZM457.118 564.271L454.291 390.071H433.696L431.677 564.271H457.118ZM698.598 390.071H676.792L675.169 564.271C678.803 564.65 700.416 566.433 701.054 563.731L698.598 390.071ZM747.056 390.071H726.058L723.586 563.804C723.934 565.796 745.635 564.868 748.671 565.078L747.048 390.063L747.056 390.071ZM636.411 401.362H499.518C498.993 401.362 495.859 401.878 495.9 402.572L498.323 404.975L631.21 405.443C633.617 405.733 636.282 403.91 636.411 401.362ZM495.076 580.401L497.693 577.772C498.84 521.02 498.46 463.816 497.887 407.023L495.076 404.588V580.401ZM638.026 404.588L636.201 405.588C634.925 463.259 635.773 521.262 635.773 579.022L638.026 581.207V404.588ZM633.18 407.814H499.922V577.175H506.383V417.491H627.527V578.788H633.18V407.814ZM565.34 419.911H507.998V577.175L565.34 577.981V419.911ZM625.912 419.911H566.955V577.981L625.912 578.788V419.911ZM1210.63 544.916H1002.27V548.142H1210.63V544.916ZM1207.4 550.561H1002.27L1003.49 568.296L1024.48 586.046H1207.4V550.561ZM460.34 565.078C449.946 566.449 438.486 566.328 428.043 565.078C428.196 568.368 425.313 571.03 430.022 571.57C435.255 572.175 445.641 571.933 451.093 571.57C456.27 571.223 461.963 571.626 460.34 565.086V565.078ZM703.444 565.884C692.945 567.368 682.47 566.336 671.939 565.884C670.024 571.505 678.787 571.868 682.947 572.231C689.803 572.828 696.644 572.118 703.444 571.53V565.876V565.884ZM751.902 566.691L721.212 565.884L721.164 570.231C721.672 572.159 745.796 572.659 748.211 572.288C751.748 571.747 752.281 570.086 751.902 566.699V566.691ZM411.083 566.691H381.201C381.297 568.425 380.506 571.562 382.525 572.223C387.952 571.554 394.316 573.215 399.332 573.175C402.756 573.151 407.578 571.102 411.075 572.344V566.699L411.083 566.691ZM379.585 568.304H135.278L102.165 596.531L106.308 598.047L369.902 597.345C369.45 590.748 369.498 586.788 374.384 582.062C375.426 581.062 377.445 581.207 377.913 579.877C378.519 578.127 375.959 573.586 380.393 573.126L378.245 570.304L379.593 568.304H379.585ZM1001.06 568.304H753.517L754.373 572.304L756.635 572.836L756.78 583.595L760.786 584.837V597.337C850.941 598.982 941.388 597.845 1031.66 598.063L1034.56 597.329L1001.05 568.304H1001.06ZM719.597 569.917H707.078C706.917 569.917 706.166 568.763 705.875 569.102L705.059 572.328L709.55 573.094L710.656 584.087L716.366 584.441L715.647 572.804L719.597 569.917ZM423.197 582.82H461.963C461.608 580.724 463.046 574.844 460.639 574.062L423.197 573.941L425.612 571.143C424.538 568.771 416.203 570.384 413.909 569.917L413.506 571.522C417.536 571.102 416.122 582.216 416.728 582.828H421.582V574.756C424.538 575.473 422.575 582.216 423.189 582.82H423.197ZM469.232 569.917C466.147 570.126 461.866 568.699 460.348 572.328C465.905 572.53 464.063 579.691 464.386 583.627C465.509 584.095 469.224 582.369 469.224 581.611V569.917H469.232ZM414.321 573.949L379.585 574.756V582.022L414.321 582.828V573.949ZM708.298 583.635C707.902 581.449 709.413 574.836 706.965 574.03L667.917 573.957L668.716 583.635H708.298ZM755.132 573.949H717.174L717.973 584.441L755.132 583.635V573.949ZM458.733 598.95H673.562C672.245 593.047 664.702 589.788 661.682 584.417L638.422 584.054L633.56 580.425L498.315 580.014C496.732 581.143 495.997 583.199 493.84 583.611C487.573 584.804 477.179 583.159 470.621 582.941C468.925 583.385 457.917 598.361 458.725 598.958L458.733 598.95ZM372.317 588.062V615.08H437.331L444.599 606.208H457.118C457.424 602.902 456.504 598.845 457.481 595.684C458.062 593.797 466.938 585.441 466.001 584.441L376.024 583.764C375.442 584.514 372.405 587.764 372.317 588.062ZM759.17 586.046L666.293 585.248C672.149 592.337 677.18 595.821 675.169 606.216C678.23 606.329 684.691 605.91 687.259 607.45C688.786 608.37 691.419 613.781 693.341 615.088H759.162V586.054L759.17 586.046ZM369.894 599.756H105.395L104.184 600.966V615.08H369.49C371.323 613.959 369.894 613.346 369.894 613.063V599.756ZM760.786 599.756V615.08H1034.57L1033.76 599.756H760.786ZM673.562 600.563H458.733V609.434H673.562V600.563ZM457.013 607.128L445.197 607.547L439.35 615.878L692.137 616.685C688.681 611.717 688.665 608.297 682.074 607.789C679.805 607.612 677.447 607.966 675.177 607.813V611.047C669.217 610.273 662.893 611.144 656.989 611.088C606.787 610.644 555.495 611.434 505.042 610.741C489.77 610.531 474.441 609.846 459.129 610.249C456.883 610.442 457.481 607.563 457.013 607.128ZM692.953 619.112L439.35 618.306V627.983L692.533 628L692.953 619.112Z" fill="#E7000B" stroke="#E7000B" stroke-miterlimit="10"/>
<path d="M560.494 81.1881C565.615 84.285 569.984 91.5676 567.593 97.5517C566.866 99.3663 565.502 100.294 565.017 101.423C563.442 105.036 563.281 112.318 563.733 116.27C564.492 122.899 572.568 128.117 571.01 136.029C572.964 134.956 572.714 132.424 573.869 130.424C575.468 127.658 578.852 125.529 579.134 122.738C579.385 120.246 578.214 118.206 578.262 116.27C578.424 110.584 580.152 103.479 579.054 97.7372C578.577 95.2613 574.604 92.366 574.192 88.0513C573.723 83.1398 575.783 83.6963 576.485 81.4059C576.76 80.5107 575.993 79.3413 576.429 78.18C577.188 76.188 579.522 75.7686 580.588 74.2363C582.026 72.1636 582.268 68.3086 583.116 65.873L591.249 76.688C592.274 80.3333 593.389 84.9383 592.606 88.6723C591.976 91.6885 587.138 96.4226 587.138 96.9146V115.867L590.433 114.641V112.697L592.807 112.633L592.081 111.117L600.908 109.036L600.876 106.189L605.657 106.931L607.038 103.697C610.066 103.608 613.184 105.487 613.822 108.592L618.635 106.181L616.342 117.69C617.537 120.407 620.743 120.851 622.722 122.666C623.901 123.746 624.725 125.496 625.872 126.787C626.801 127.843 628.739 128.569 629.191 129.319C630.855 132.109 629.676 136.214 629.086 139.182C623.651 138.295 622.383 140.819 617.561 137.497C616.14 136.521 614.452 134.118 613.232 133.755C610.696 133.013 607.506 134.384 604.922 132.779C602.83 141.682 607.555 150.65 605.253 159.836C607.224 161.223 612.554 171.03 613.523 171.361C620.606 173.797 624.281 166.006 629.991 167.812C634.384 169.2 634.053 173.547 635.878 176.466C641.096 184.797 650.496 191.249 648.526 202.951C645.812 203.507 638.996 200.878 638.438 198.217C638.22 197.16 639.004 195.781 638.826 194.563C638.471 192.136 630.079 179.313 627.826 178.885L618.66 183.587C629.013 183.74 628.787 190.838 632.244 197.854C636.492 206.475 642.848 215.258 639.65 225.54C638.245 226.758 632.632 222.097 631.985 220.677C630.871 218.242 632.825 216.314 631.63 213.016C630.629 210.241 625.056 199.443 623.368 197.047C619.766 191.918 617.642 195.386 612.586 195.684C610.171 195.83 606.844 195.951 604.494 195.733C600.989 195.41 597.532 193.031 594.915 193.281C592.541 193.515 586.718 197.233 583.568 198.152C575.718 200.451 566.947 200.169 558.936 198.943C557.256 205.435 550.908 210.072 545.174 213.032C548.969 217.161 560.486 217.54 563.329 221.516C565.275 224.234 566.414 240.186 564.137 240.065L556.012 234.404L557.143 228.097C546.991 221.145 533.431 224.379 523.424 217.766L524.167 213.435C513.062 213.379 509.775 226.089 503.589 232.799C502.628 233.839 502.183 234.146 502.377 232.396C505.955 227.049 512.117 214.225 518.473 212.169C526.816 209.475 531.04 211.621 539.787 205.225C544.907 201.475 545.028 199.402 547.936 194.813C549.244 192.749 551.279 192.571 550.835 190.047C552.975 190.2 550.439 194.354 550.827 194.862C565.122 199.677 580.12 199.515 593.26 191.676L592.016 188.434C595.666 189.458 598.21 192.628 602.184 193.192C608.257 194.055 614.46 192.515 620.509 192.62C626.13 193.733 627.624 204.564 630.362 206.983C631.719 208.185 633.229 207.782 634.812 207.782L631.582 209.403L632.422 211.806L635.507 210.887C636.557 206.233 632.938 203.314 631.162 199.725C629.999 197.378 626.494 188.741 625.508 187.628C623.295 185.144 616.051 185.337 612.643 184.345C610.777 183.805 609.412 182.079 607.361 181.95C607.159 180.418 608.944 181.724 609.865 180.652C610.091 180.386 611.141 177.789 611.221 177.329C612.425 170.369 604.599 160.707 598.477 158.167L604.122 159.369C603.719 153.812 602.741 147.57 602.475 142.07C602.346 139.473 603.436 132.803 603.185 131.714C602.765 129.892 598.057 127.15 599.285 123.891C600.908 124.448 600.811 127.109 601.958 128.472C602.919 129.617 607.918 132.618 609.453 132.747C610.987 132.876 612.328 131.876 613.782 132.343C615.776 132.997 618.765 136.94 620.897 137.44C622.601 137.844 626.146 136.65 628.351 137.585V133.553L627.544 135.981H624.321L624.66 131.868L627.544 130.722C624.58 129.416 624.103 126.214 621.93 124.23C619.378 121.899 615.72 120.77 614.193 116.601C613.846 115.657 617.367 112.286 616.229 110.165L613.386 110.947L612.99 115.802L612.182 112.585L605.729 115.802C608.209 113.375 610.874 112.754 612.005 108.947L608.556 105.342C605.52 108.02 608.588 107.294 609.768 109.351L602.596 108.657C602.192 111.907 599.688 110.391 598.259 111.02C597.589 111.318 597.686 112.165 597.007 112.496C596.014 112.98 594.407 112.423 593.615 113.794C593.785 115.367 600.06 111.786 597.661 114.609C587.412 115.843 580.313 124.456 577.051 133.545L576.663 128.714C573.885 137.15 570.258 139.553 574.329 148.368C577.333 154.876 583.043 158.78 582.841 166.909C582.825 167.554 582.551 169.272 581.509 169.03C582.857 166.022 580.015 164.812 579.918 164.433C579.538 162.941 580.071 161.49 579.28 159.554C577.947 156.296 570.969 151.763 569.774 147.287C568.312 141.828 571.793 138.715 569.83 131.908C565.857 118.125 549.785 115.762 538.769 109.697C534.755 107.488 529.602 103.633 525.847 100.826C520.525 96.8339 515.202 92.5354 510.833 87.5916C510.139 89.3739 511.859 92.245 512.844 93.6483C518.263 101.326 536.58 113.359 545.416 116.77C549.422 118.319 556.545 118.859 558.895 120.246C559.283 120.472 560.236 121.44 559.283 121.472L551.982 120.109L550.811 122.262L560.494 123.085L553.621 124.682L550.811 123.891L554.841 123.085L549.196 123.883L549.171 121.165L550.795 119.859C536.467 114.899 520.824 106.552 512.02 94.0515C510.526 93.8741 511.318 95.729 511.592 96.4952C516.479 110.06 535.442 118.593 548.372 122.287C548.428 123.432 548.767 124.23 547.249 123.811C542.411 122.472 532.865 118.464 528.448 115.956C522.665 112.681 516.309 107.504 512.424 102.116C511.746 108.189 518.465 113.98 523.061 117.302C529.942 122.262 538.147 125.658 546.748 125.512C546.91 126.795 545.044 126.682 544.245 126.666C535.983 126.472 527.204 122.069 520.646 117.302C518.376 115.649 516.793 113.504 514.451 111.794C515.937 115.133 516.139 118.335 518.869 121.496C524.078 127.545 537.727 132.722 545.561 131.158C548.461 130.577 546.49 128.553 548.372 127.924C548.412 130.174 547.516 131.738 550.003 132.359L548.994 132.803L548.38 135.182C554.025 133.747 559.469 133.182 565.332 133.577L547.564 135.989V131.956C537.776 134.868 528.593 129.521 520.113 125.504C521.114 130.077 531.064 135.981 535.046 135.981H546.756C546.458 137.456 545.174 137.481 543.962 137.618C538.058 138.295 531.113 136.844 526.162 133.561C523.812 132.803 530.394 138.884 531.622 139.4C536.144 141.319 542.831 140.828 547.572 139.997L546.765 136.787H549.196C548.041 138.666 548.953 139.247 549.995 140.803L532.235 141.215C536.564 145.683 542.783 146.796 548.719 144.941L549.591 142.432L550.084 144.473L552.418 144.852C552.644 145.029 551.998 145.876 551.618 146.07C551.239 146.263 543.93 147.255 543.09 147.287C540.853 147.368 538.987 146.215 537.081 146.86C541.257 150.771 548.784 151.973 552.402 147.271L554.025 149.675L541.919 151.304C541.951 152.352 545.044 153.409 545.731 153.522C548.961 154.046 554.211 154.425 554.849 150.497L556.375 150.578L558.063 152.901C554.825 152.376 551.312 155.554 548.453 155.764C546.991 155.868 546.135 154.586 544.875 154.691C542.355 154.901 535.644 159.651 532.219 159.764L516.075 163.385C526.695 165.949 539.076 162.715 548.582 157.707C549.204 157.385 549.228 156.756 549.204 156.159L550.803 156.143L549.979 157.739C550.948 158.441 558.475 155.941 558.071 153.723L562.917 156.643L569.354 151.296C569.685 152.78 568.546 153.215 567.755 154.118C567.238 154.699 563.555 158.586 563.24 158.602C561.593 158.691 560.922 157.086 559.032 157.433C556.763 157.852 556.593 160.78 553.217 160.554C558.031 164.828 561.391 157.635 566.131 160.167C566.204 161.82 563.959 160.296 562.804 160.57C560.268 161.183 558.314 164.232 555.689 164.224C554.534 169.361 562.885 165.337 565.324 163.377C566.963 165.062 559.897 167.554 558.879 167.417C559.049 168.409 563.668 168.796 564.29 168.772C569.289 168.579 568.805 165.53 569.378 161.764L570.969 164.982L574.2 160.957C574.184 163.07 572.148 163.764 571.365 165.78C570.654 167.611 570.638 170.264 570.162 172.24C568.013 171.635 570.654 167.99 570.162 166.603L563.725 171.845C566.269 174.595 572.148 171.006 572.584 176.28C569.459 172.667 564.71 175.337 562.158 171.845L563.709 169.837C552.41 166.401 549.664 162.667 537.654 167.603C525.136 172.74 519.846 181.136 521.72 194.83L523.327 192.015C523.271 195.201 523.779 198.547 522.326 201.499C520.387 205.451 514.5 205.088 511.641 208.572C508.838 211.992 505.099 219.782 502.192 224.137C499.567 228.057 493.518 232.129 497.483 236.767C495.197 237.355 495.529 234.944 495.044 233.549L489.423 234.371L490.626 243.243C492.758 238.662 497.79 237.275 501.521 234.363L490.626 245.638C489.391 245.662 486.968 236.347 488.187 234.347C488.938 233.113 492.758 232.702 494.608 231.081C497.443 228.581 504.299 217.903 506.714 214.137C508.257 211.733 509.016 208.064 510.874 206.193C513.151 203.911 520.153 202.652 520.783 200.757C521.373 195.757 518.974 191.434 519.257 186.353C519.442 182.982 520.719 181.603 521.712 178.716C521.235 178.152 510.607 186.12 509.565 187.144C505.866 190.805 500.762 201.773 496.885 202.717C495.747 202.991 494.842 202.128 493.186 202.975C490.384 204.427 488.446 209.395 484.618 210.612C480.159 212.032 478.883 209.5 477.042 209.532C474.627 209.572 472.237 212.016 468.182 210.806C467.036 210.467 461.826 203.975 461.964 203.322C463.296 201.467 465.671 202.161 467.609 202.088C467.407 200.757 463.248 200.185 465.969 198.443C467.843 197.241 472.253 198.838 474.861 197.644C476.614 196.846 479.982 191.999 482.195 190.45C485.732 187.983 489.576 188.015 492.581 186.305C495.585 184.595 498.808 179.99 502.838 177.998C506.351 176.256 513.482 174.756 517.48 174.071C525.387 172.724 522.18 174.926 529.053 170.304C536.322 165.417 543.502 162.344 552.402 161.764C548.776 155.82 543.163 161.796 538.43 163.538C523.246 169.127 515.978 163.675 502.498 158.78C491.781 154.885 486.612 150.594 477.825 143.892C475.879 142.408 474.11 140.739 473.254 138.384C481.379 139.965 489.617 141.086 497.927 140.836L528.173 138.368C527.705 137.077 526.13 136.876 524.951 135.553C521.26 131.416 513.733 116.673 512.037 111.343C511.907 110.931 511.818 110.028 512.424 110.149C512.981 110.843 513.749 111.246 514.443 111.754C511.431 104.987 510.421 103.568 509.743 95.8097C509.533 93.4548 509.339 90.3659 509.218 87.9787C508.863 81.2446 512.852 88.0916 514.048 89.1723C525.79 99.8018 540.11 109.157 554.817 114.988C554.187 111.399 556.286 107.576 555.624 104.125C554.897 100.366 550.94 99.6808 551.683 92.1079C552.176 87.1239 553.864 87.4061 555.988 84.3012C556.706 83.2527 558.661 77.3574 560.066 79.5268C560.413 79.9865 560.284 80.7204 560.478 81.1236C560.107 80.8978 559.04 80.1881 558.871 80.3171C558.338 83.3173 557.231 86.027 554.825 87.9949C554.776 91.1966 558.96 88.9143 559.662 90.7934L553.993 91.1885C553.104 91.6079 552.903 93.5596 553.209 94.0193C554.041 95.3016 560.405 92.6805 561.278 94.8258L556.44 94.8419L560.47 95.6484C558.419 99.0921 555.309 96.7291 553.209 94.8338L553.193 98.8743H556.44C555.075 101.116 557.094 102.52 557.272 104.899C557.425 107.036 556.505 115.335 556.795 115.802C557.167 116.407 562.392 119.593 562.893 119.036C562.642 113.593 560.292 106.576 562.731 101.528C564.411 98.0436 566.689 98.3743 566.172 92.8257C565.679 87.511 562.376 85.148 560.478 81.1398L560.494 81.1881ZM580.685 96.1081C582.252 102.092 579.522 114.746 580.685 121.512L585.894 116.714C585.91 110.77 584.65 102.697 585.571 96.9549C586.185 93.108 591.031 90.8901 591.047 85.5835C591.063 82.414 588.866 82.9543 588.761 82.785C588.495 82.3414 590.021 81.4462 590.255 80.5994C590.829 78.4461 584.949 70.2764 583.116 68.2844L581.484 77.1477L583.915 77.9542C582.478 77.8251 577.761 77.5348 578.27 79.9704L583.915 83.5995L576.655 82.8011L576.679 86.7932L585.531 86.8335V89.2449C583.592 87.6561 583.035 87.5916 580.677 88.4465C581.961 89.8256 581.339 90.9788 579.78 89.4707C578.827 88.5513 579.191 87.7045 576.647 87.6239C575.298 90.9305 580.241 94.4145 580.677 96.0919L580.685 96.1081ZM535.458 147.312L529.384 140.021C512.15 141.295 493.316 145.102 476.509 140.061C475.096 141.416 481.024 143.892 481.71 144.134C497.903 149.852 515.849 146.126 532.219 143.295C531.84 144.763 528.682 145.013 527.39 145.312C513.482 148.562 497.758 149.247 483.77 146.521C498.678 157.288 519.014 150.425 535.458 147.312ZM543.534 154.57C541.055 152.788 539.027 148.312 535.894 148.231C521.155 151.683 506.149 156.127 491.046 152.175C490.925 153.239 492.888 153.602 493.728 153.917C503.888 157.731 511.067 157.844 521.76 155.82C527.535 154.731 532.825 151.981 538.688 151.368L519.491 157.594L504.776 158.627C504.566 159.796 506.302 159.667 507.175 159.844C520.783 162.611 531.016 159.433 543.542 154.578L543.534 154.57ZM646.079 197.289C645.739 188.741 637.558 183.797 634.101 177.45C631.897 173.401 633.568 168.909 626.381 169.942C622.318 170.522 618.595 175.78 612.998 172.321C613.467 175.982 612.651 178.684 611.375 181.99C618.11 185.257 622.318 177.208 628.561 177.281L640.999 192.676L640.457 198.935L646.087 197.297L646.079 197.289ZM523.335 175.555C521.978 173.845 515.598 177.281 513.838 177.756C508.596 179.176 504.921 178.934 499.971 182.458C493.154 187.305 495.827 186.821 487.016 190.491C481.742 192.684 477.187 199.096 474.038 200.152C472.366 200.717 469.604 199.185 467.617 199.757C468.32 202.564 473.19 200.79 474.078 201.37C473.852 206.999 471.308 207.959 466.002 207.411C472.923 212.879 476.614 204.669 481.742 201.362C482.082 203.08 475.217 206.782 479.311 207.814L485.377 202.58L480.539 198.959C484.125 200.531 486.855 201.878 490.223 198.959L484.529 206.588L481.347 207.846L481.759 209.459C487.582 208.62 488.769 202.29 493.453 200.564L492.637 198.531L487.816 197.354L497.499 194.934L495.076 200.564C497.612 202.604 506.197 187.337 508.41 185.257C510.47 183.321 515.065 180.498 517.65 179.16C518.611 178.66 524.821 177.442 523.343 175.579L523.335 175.555ZM557.264 198.943L550.019 197.709C545.472 202.451 540.4 208.475 534.287 211.064C530.491 212.669 527.107 211.225 525.879 216.29C533.164 221.621 542.274 220.081 550.633 222.903C552.862 223.653 555.939 225.952 557.078 226.218C559.25 226.718 561.883 224.169 562.925 227.153H558.887C558.766 228.944 558.564 229.783 560.494 229.589V230.371C558.338 230.258 558.015 232.597 558.088 234.412L561.31 233.613C560.413 235.767 561.092 237.581 563.733 237.638L562.739 222.508C559.008 220.387 554.502 219.774 550.649 218.048C547.104 216.451 545.198 214.29 541.935 212.629L549.599 207.798L557.272 198.935L557.264 198.943ZM637.978 219.863C638.115 217.903 638.107 215.919 637.922 213.951C637.849 213.145 637.59 210.161 636.411 210.233L633.173 212.653L635.579 215.863C630.451 218.048 632.728 221.532 637.97 219.863H637.978Z" fill="#E7000B" stroke="#E7000B" stroke-miterlimit="10"/>
<path d="M613.797 465.88V502.979H577.454V465.88H613.797ZM612.182 467.493H579.069V500.559H612.182V467.493Z" fill="#E7000B" stroke="#E7000B" stroke-miterlimit="10"/>
<path d="M613.797 432.008V457.009H577.454V432.008H613.797ZM612.182 434.428H580.281C580.039 434.428 579.659 433.404 579.069 433.621V455.396H612.182V434.428Z" fill="#E7000B" stroke="#E7000B" stroke-miterlimit="10"/>
<path d="M613.797 536.851V559.835L577.454 561.045V536.851H613.797ZM612.182 538.464H579.877V559.432H612.182V538.464Z" fill="#E7000B" stroke="#E7000B" stroke-miterlimit="10"/>
<path d="M613.797 511.85V528.786H578.666L577.454 527.577V511.85H613.797ZM612.182 512.657H579.069V526.367H612.182V512.657Z" fill="#E7000B" stroke="#E7000B" stroke-miterlimit="10"/>
<path d="M570.186 502.979V491.285L571.801 490.47C572.415 490.906 575.645 505.1 570.186 502.979Z" fill="#E7000B" stroke="#E7000B" stroke-miterlimit="10"/>
<path d="M519.305 503.785V465.88H553.629V503.785H519.305ZM552.417 467.493H520.92V500.962C522.043 502.793 522.656 501.366 522.939 501.366H552.417V467.493Z" fill="#E7000B" stroke="#E7000B" stroke-miterlimit="10"/>
<path d="M554.84 457.009H519.305V432.008H553.629L554.663 433.218C554.687 433.549 554.033 433.823 554.033 434.025V455.8C554.033 456.041 555.058 456.421 554.84 457.009ZM552.417 434.428H520.92V455.396H552.417V434.428Z" fill="#E7000B" stroke="#E7000B" stroke-miterlimit="10"/>
<path d="M554.033 528.786H519.305V513.06L520.516 511.85H553.629L554.525 513.052L554.033 528.786ZM552.417 514.27H520.92V525.964L522.131 527.173H552.417V514.27Z" fill="#E7000B" stroke="#E7000B" stroke-miterlimit="10"/>
<path d="M554.84 536.851C555.276 544.915 552.684 553.101 554.84 561.045H519.305V536.851H554.84ZM553.225 538.464H520.92V559.432H552.417V539.673C552.417 539.504 553.629 538.754 553.225 538.464Z" fill="#E7000B" stroke="#E7000B" stroke-miterlimit="10"/>
<path d="M562.101 490.89L562.909 502.979L559.687 502.987L559.695 492.906L562.101 490.89Z" fill="#E7000B" stroke="#E7000B" stroke-miterlimit="10"/>
<path d="M612.989 118.286L607.336 119.891C609.032 119.811 610.696 119.851 612.384 120.101C612.755 120.157 615.525 120.665 614.185 121.52C611.447 120.762 608.596 120.786 605.842 120.174C604.76 119.932 601.828 119.601 601.683 118.278H612.989V118.286Z" fill="#E7000B" stroke="#E7000B" stroke-miterlimit="10"/>
<path d="M1.61523 586.853V276.72" stroke="black" stroke-width="4" stroke-miterlimit="10"/>
</g>
<defs>
<clipPath id="clip0_332_521">
<rect width="1229" height="630" fill="white"/>
</clipPath>
</defs>
</svg>
